<?xml version="1.0" encoding="UTF-8" standalone="no"?>
<svg width="120px" height="27px" viewBox="0 0 120 27" version="1.1" xmlns="http://www.w3.org/2000/svg" xmlns:xlink="http://www.w3.org/1999/xlink">
    <!-- Generator: Sketch 42 (36781) - http://www.bohemiancoding.com/sketch -->
    <title>plashjka</title>
    <desc>Created with Sketch.</desc>
    <defs>
        <polygon id="path-1" points="119.988524 26.6968123 0 26.6968123 0 0.0141171625 119.988524 0.0141171625"></polygon>
    </defs>
    <g id="Page-1" stroke="none" stroke-width="1" fill="none" fill-rule="evenodd">
        <g id="sweaters_head_04" transform="translate(-1590.000000, -112.000000)">
            <g id="plashjka" transform="translate(1590.000000, 112.000000)">
                <path d="M16.4999449,9.32769849 C15.2744569,8.28205005 13.6593479,8.22572117 12.0997612,8.22572117 L9.59298737,8.22572117 L9.59298737,18.6798295 L12.0438255,18.6798295 C13.102333,18.6798295 15.1353065,18.6235006 16.3884868,17.5781317 C17.3633662,16.7868717 18.0318393,15.2611 18.0318393,13.4246109 C18.0318393,11.7292934 17.5025166,10.2036614 16.4999449,9.32769849" id="Fill-1" fill="#221F20"></path>
                <path d="M37.4755591,7.66057342 C36.3896349,7.66057342 34.9691986,7.85849324 33.8551688,8.98870489 C33.0753754,9.77982508 32.2955821,11.2204745 32.2955821,13.4808978 C32.2955821,15.7413211 33.0753754,17.1825297 33.8551688,17.9735101 C34.9691986,19.1037217 36.3896349,19.3016415 37.4755591,19.3016415 C38.5618967,19.3016415 39.9821952,19.1037217 41.096225,17.9735101 C41.8760184,17.1825297 42.6559495,15.7413211 42.6559495,13.4808978 C42.6559495,11.2204745 41.8760184,9.77982508 41.096225,8.98870489 C39.9821952,7.85849324 38.5618967,7.66057342 37.4755591,7.66057342" id="Fill-3" fill="#221F20"></path>
                <path d="M62.936597,10.9944741 C63.2430034,10.7969736 63.6885603,10.4296479 63.6885603,9.44074761 C63.6885603,9.01681341 63.6327623,8.39537871 62.9923949,7.97144452 C62.7415109,7.82999334 62.268124,7.66058739 61.1819242,7.66058739 L56.8372629,7.66058739 L56.8372629,11.3338451 L60.9872514,11.3338451 C61.3770103,11.3338451 62.5187325,11.2770969 62.936597,10.9944741" id="Fill-5" fill="#221F20"></path>
                <path d="M63.5491757,15.5152788 C62.9924363,15.2047012 61.9618967,15.1480928 61.4328496,15.1480928 L56.8373042,15.1480928 L56.8373042,19.3016136 L61.572,19.3016136 C62.2123674,19.3016136 63.1036188,19.2167708 63.6326659,18.8778192 C63.9392101,18.6798993 64.4404271,18.1996363 64.4404271,17.2108758 C64.4404271,16.5043188 64.2176487,15.8828841 63.5491757,15.5152788" id="Fill-7" fill="#221F20"></path>
                <path d="M85.2269759,8.28205005 C84.586333,7.91486405 83.8624753,7.94323815 83.1103743,7.94323815 L78.5984569,7.94323815 L78.5984569,12.8386787 L83.1658967,12.8386787 C83.9179977,12.8386787 84.8647715,12.6975071 85.338434,12.3584157 C86.0169644,11.8447466 86.1459196,11.0793448 86.1459196,10.0339759 C86.1459196,9.32769849 85.923279,8.70598425 85.2269759,8.28205005" id="Fill-9" fill="#221F20"></path>
                <path d="M105.011339,7.66057342 C103.925277,7.66057342 102.504978,7.85849324 101.390948,8.98870489 C100.611155,9.77982508 99.8312239,11.2204745 99.8312239,13.4808978 C99.8312239,15.7413211 100.611155,17.1825297 101.390948,17.9735101 C102.504978,19.1037217 103.925277,19.3016415 105.011339,19.3016415 C106.097676,19.3016415 107.517975,19.1037217 108.632005,17.9735101 C109.411798,17.1825297 110.191729,15.7413211 110.191729,13.4808978 C110.191729,11.2204745 109.411798,9.77982508 108.632005,8.98870489 C107.517975,7.85849324 106.097676,7.66057342 105.011339,7.66057342" id="Fill-11" fill="#221F20"></path>
                <g id="Group-15" transform="translate(0.000000, 0.125657)">
                    <mask id="mask-2" fill="white">
                        <use xlink:href="#path-1"></use>
                    </mask>
                    <g id="Clip-14"></g>
                    <path d="M114.090751,20.6734663 C111.417134,23.3859184 107.573552,23.8097128 105.011394,23.8097128 C102.449098,23.8097128 98.605791,23.3859184 95.9321745,20.6734663 C94.6788565,19.4019433 93.2028978,17.0851911 93.2028978,13.355325 C93.2028978,9.62587812 94.6788565,7.30884641 95.9321745,6.03746314 C98.605791,3.3250111 102.449098,2.9010769 105.039499,2.9010769 C107.601382,2.9010769 111.417134,3.3250111 114.090751,6.03746314 C115.343931,7.30884641 116.820028,9.62587812 116.820028,13.355325 C116.820028,17.0851911 115.343931,19.4019433 114.090751,20.6734663 L114.090751,20.6734663 Z M86.6194305,23.2447467 L82.2765603,16.7254131 L78.5984432,16.7254131 L78.5984432,23.2447467 L72.4158944,23.2447467 L72.4158944,3.46618272 L85.0597061,3.46618272 C86.7307509,3.46618272 88.680372,3.52293092 90.3237245,4.76580032 C91.9666636,6.06569746 92.27307,7.78910948 92.27307,9.1453355 C92.27307,11.0640116 91.6394535,13.3554647 89.6095109,14.7737504 C89.4039541,14.9171584 88.9958714,15.1523978 88.4544248,15.4101409 L93.6735293,23.2447467 L86.6194305,23.2447467 Z M69.7319449,21.4081179 C68.2559862,23.0750613 65.4432193,23.2447467 62.9642755,23.2447467 L50.6547003,23.2447467 L50.6547003,3.46618272 L62.7414971,3.46618272 C64.7467784,3.46618272 66.4736211,3.49441705 67.8104294,4.28553724 C68.7851711,4.87915694 69.8993387,6.00922881 69.8993387,8.35421531 C69.8993387,9.59750402 69.5093042,10.6994813 68.8686613,11.4057588 C67.8940574,12.4795018 66.362163,12.7056559 66.2228749,12.7056559 L66.2228749,12.8185932 C67.4203949,12.9031564 68.7572032,13.3838388 69.6206246,14.2030536 C70.7346544,15.2201882 70.9574328,16.5483196 70.9574328,17.6500174 C70.9574328,19.0912259 70.5397061,20.5040604 69.7319449,21.4081179 L69.7319449,21.4081179 Z M46.5549989,20.6734663 C43.8812445,23.3859184 40.0378002,23.8097128 37.475504,23.8097128 C34.9133456,23.8097128 31.0701768,23.3859184 28.3964225,20.6734663 C27.1429667,19.4019433 25.6668703,17.0851911 25.6668703,13.355325 C25.6668703,9.62587812 27.1429667,7.30884641 28.3964225,6.03746314 C31.0701768,3.3250111 34.9133456,2.9010769 37.5036096,2.9010769 C40.0654925,2.9010769 43.8812445,3.3250111 46.5549989,6.03746314 C47.8081791,7.30884641 49.2841378,9.62587812 49.2841378,13.355325 C49.2841378,17.0851911 47.8081791,19.4019433 46.5549989,20.6734663 L46.5549989,20.6734663 Z M22.0143789,20.5040604 C19.3407623,23.0466872 15.5254237,23.2447467 13.0186498,23.2447467 L3.41038347,23.2447467 L3.41038347,3.46618272 L13.157938,3.46618272 C16.1101309,3.46618272 19.3962847,3.63558867 22.0143789,6.20686909 C24.2425763,8.38244963 24.6603031,11.2363528 24.6603031,13.2707618 C24.6603031,17.0851911 23.1839311,19.4019433 22.0143789,20.5040604 L22.0143789,20.5040604 Z M-4.1331803e-05,26.6968822 L119.988524,26.6968822 L119.988524,0.0141870495 L-4.1331803e-05,0.0141870495 L-4.1331803e-05,26.6968822 Z" id="Fill-13" fill="#221F20" mask="url(#mask-2)"></path>
                </g>
            </g>
        </g>
    </g>
</svg>